<?xml version="1.0" encoding="UTF-8" standalone="no"?>
<svg
   xmlns:dc="http://purl.org/dc/elements/1.1/"
   xmlns:cc="http://creativecommons.org/ns#"
   xmlns:rdf="http://www.w3.org/1999/02/22-rdf-syntax-ns#"
   xmlns:svg="http://www.w3.org/2000/svg"
   xmlns="http://www.w3.org/2000/svg"
   viewBox="0 0 571.31622 290.16501"
   height="290.16501"
   width="571.31622"
   xml:space="preserve"
   version="1.1"
   id="svg3336"><metadata
     id="metadata3342"><rdf:RDF><cc:Work
         rdf:about=""><dc:format>image/svg+xml</dc:format><dc:type
           rdf:resource="http://purl.org/dc/dcmitype/StillImage" /><dc:title></dc:title></cc:Work></rdf:RDF></metadata><defs
     id="defs3340"><clipPath
       id="clipPath3350"
       clipPathUnits="userSpaceOnUse"><path
         style="clip-rule:evenodd"
         id="path3352"
         d="m 0,1.2207e-4 720,0 0,539.99999793 -720,0 L 0,1.2207e-4 Z" /></clipPath></defs><g
     transform="matrix(1.25,0,0,-1.25,-148.75,578.7525)"
     id="g3344"><path
       id="path3356"
       style="fill:none;stroke:#000000;stroke-width:2;stroke-linecap:butt;stroke-linejoin:round;stroke-miterlimit:10;stroke-dasharray:none;stroke-opacity:1"
       d="m 234,358.74 96,0 0,61.105 -96,0 0,-61.105 z" /><text
       id="text3358"
       style="font-variant:normal;font-weight:bold;font-size:18px;font-family:Calibri;-inkscape-font-specification:'Calibri Bold';writing-mode:lr-tb;fill:#000000;fill-opacity:1;fill-rule:nonzero;stroke:none"
       transform="matrix(1,0,0,-1,251.02,383.26)"><tspan
         id="tspan3360"
         y="0"
         x="0 10.098 16.200001 25.884001 39.240002 46.422001 55.548">Browser</tspan></text>
<path
       id="path3362"
       style="fill:none;stroke:#000000;stroke-width:2;stroke-linecap:butt;stroke-linejoin:round;stroke-miterlimit:10;stroke-dasharray:none;stroke-opacity:1"
       d="m 120,423.87 77.053,0 0,32.132 -77.053,0 0,-32.132 z" /><text
       id="text3364"
       style="font-variant:normal;font-weight:bold;font-size:15.96000004px;font-family:Calibri;-inkscape-font-specification:'Calibri Bold';writing-mode:lr-tb;fill:#000000;fill-opacity:1;fill-rule:nonzero;stroke:none"
       transform="matrix(1,0,0,-1,147.26,434.52)"><tspan
         id="tspan3366"
         y="0"
         x="0 9.70368 18.194401">API</tspan></text>
<path
       id="path3368"
       style="fill:none;stroke:#000000;stroke-width:2;stroke-linecap:butt;stroke-linejoin:round;stroke-miterlimit:10;stroke-dasharray:none;stroke-opacity:1"
       d="m 132,355.46 77.053,0 0,32.132 -77.053,0 0,-32.132 z" /><text
       id="text3370"
       style="font-variant:normal;font-weight:bold;font-size:15.96000004px;font-family:Calibri;-inkscape-font-specification:'Calibri Bold';writing-mode:lr-tb;fill:#000000;fill-opacity:1;fill-rule:nonzero;stroke:none"
       transform="matrix(1,0,0,-1,162.74,366.1)"><tspan
         id="tspan3372"
         y="0"
         x="0 7.5599799">S3</tspan></text>
<path
       id="path3374"
       style="fill:none;stroke:#000000;stroke-width:2;stroke-linecap:butt;stroke-linejoin:round;stroke-miterlimit:10;stroke-dasharray:none;stroke-opacity:1"
       d="m 144,285.87 77.053,0 0,32.132 -77.053,0 0,-32.132 z" /><text
       id="text3376"
       style="font-variant:normal;font-weight:bold;font-size:12px;font-family:Calibri;-inkscape-font-specification:'Calibri Bold';writing-mode:lr-tb;fill:#000000;fill-opacity:1;fill-rule:nonzero;stroke:none"
       transform="matrix(1,0,0,-1,153.74,297.82)"><tspan
         id="tspan3378"
         y="0"
         x="0 10.44 16.440001 22.908001 25.656 31.332001 37.296001 41.723999 47.243999 53.243999">Web Server</tspan></text>
<path
       id="path3380"
       style="fill:none;stroke:#000000;stroke-width:2;stroke-linecap:butt;stroke-linejoin:round;stroke-miterlimit:10;stroke-dasharray:none;stroke-opacity:1"
       d="m 498,323.64 77.053,0 0,32.132 -77.053,0 0,-32.132 z" /><text
       id="text3382"
       style="font-variant:normal;font-weight:bold;font-size:15.96000004px;font-family:Calibri;-inkscape-font-specification:'Calibri Bold';writing-mode:lr-tb;fill:#000000;fill-opacity:1;fill-rule:nonzero;stroke:none"
       transform="matrix(1,0,0,-1,525.31,334.27)"><tspan
         id="tspan3384"
         y="0"
         x="0 9.70368 18.194401">API</tspan></text>
<path
       id="path3386"
       style="fill:none;stroke:#000000;stroke-width:2;stroke-linecap:butt;stroke-linejoin:round;stroke-miterlimit:10;stroke-dasharray:none;stroke-opacity:1"
       d="m 258,231.87 77.053,0 0,32.132 -77.053,0 0,-32.132 z" /><text
       id="text3388"
       style="font-variant:normal;font-weight:bold;font-size:15.96000004px;font-family:Calibri;-inkscape-font-specification:'Calibri Bold';writing-mode:lr-tb;fill:#000000;fill-opacity:1;fill-rule:nonzero;stroke:none"
       transform="matrix(1,0,0,-1,285.29,242.47)"><tspan
         id="tspan3390"
         y="0"
         x="0 9.70368 18.194401">API</tspan></text>
<path
       id="path3392"
       style="fill:none;stroke:#000000;stroke-width:2;stroke-linecap:butt;stroke-linejoin:round;stroke-miterlimit:10;stroke-dasharray:none;stroke-opacity:1"
       d="m 360,247.93 77.053,0 0,32.132 -77.053,0 0,-32.132 z" /><text
       id="text3394"
       style="font-variant:normal;font-weight:bold;font-size:15.96000004px;font-family:Calibri;-inkscape-font-specification:'Calibri Bold';writing-mode:lr-tb;fill:#000000;fill-opacity:1;fill-rule:nonzero;stroke:none"
       transform="matrix(1,0,0,-1,387.29,258.55)"><tspan
         id="tspan3396"
         y="0"
         x="0 9.70368 18.194401">API</tspan></text>
<path
       id="path3398"
       style="fill:none;stroke:#000000;stroke-width:2;stroke-linecap:butt;stroke-linejoin:round;stroke-miterlimit:10;stroke-dasharray:none;stroke-opacity:1"
       d="m 456,270.36 77.053,0 0,32.132 -77.053,0 0,-32.132 z" /><text
       id="text3400"
       style="font-variant:normal;font-weight:bold;font-size:12px;font-family:Calibri;-inkscape-font-specification:'Calibri Bold';writing-mode:lr-tb;fill:#000000;fill-opacity:1;fill-rule:nonzero;stroke:none"
       transform="matrix(1,0,0,-1,465.79,282.29)"><tspan
         id="tspan3402"
         y="0"
         x="0 10.44 16.440001 22.908001 25.656 31.332001 37.296001 41.723999 47.243999 53.243999">Web Server</tspan></text>
<path
       id="path3404"
       style="fill:none;stroke:#000000;stroke-width:2;stroke-linecap:butt;stroke-linejoin:round;stroke-miterlimit:10;stroke-dasharray:none;stroke-opacity:1"
       d="m 366,340.97 96,0 0,61.105 -96,0 0,-61.105 z" /><text
       id="text3406"
       style="font-variant:normal;font-weight:bold;font-size:18px;font-family:Calibri;-inkscape-font-specification:'Calibri Bold';writing-mode:lr-tb;fill:#000000;fill-opacity:1;fill-rule:nonzero;stroke:none"
       transform="matrix(1,0,0,-1,383.02,365.5)"><tspan
         id="tspan3408"
         y="0"
         x="0 10.098 16.200001 25.884001 39.240002 46.422001 55.548">Browser</tspan></text>
<path
       id="path3410"
       style="fill:none;stroke:#000000;stroke-width:2;stroke-linecap:butt;stroke-linejoin:round;stroke-miterlimit:10;stroke-dasharray:none;stroke-opacity:1"
       d="m 494.53,400.7 77.053,0 0,32.132 -77.053,0 0,-32.132 z" /><text
       id="text3412"
       style="font-variant:normal;font-weight:bold;font-size:12px;font-family:Calibri;-inkscape-font-specification:'Calibri Bold';writing-mode:lr-tb;fill:#000000;fill-opacity:1;fill-rule:nonzero;stroke:none"
       transform="matrix(1,0,0,-1,524.62,412.66)"><tspan
         id="tspan3414"
         y="0"
         x="0 7.3080001 13.692">API</tspan></text>
<path
       id="path3416"
       style="fill:#000000;fill-opacity:1;fill-rule:nonzero;stroke:none"
       d="m 295.24,265.81 -14.23,92.78 1.98,0.3 14.22,-92.78 -1.97,-0.3 z m 4.47,6.24 -3.18,-8.05 -5.45,6.73 c -0.35,0.43 -0.28,1.06 0.15,1.4 0.43,0.35 1.06,0.29 1.4,-0.14 l 0,0 4.37,-5.4 -1.7,-0.27 2.55,6.47 c 0.2,0.51 0.78,0.76 1.29,0.56 0.52,-0.2 0.77,-0.79 0.57,-1.3 z" /><path
       id="path3418"
       style="fill:#000000;fill-opacity:1;fill-rule:nonzero;stroke:none"
       d="m 211.22,371.06 23.03,5.97 -0.5,1.94 -23.03,-5.98 0.5,-1.93 z m 3.97,6.57 -6.14,-6.1 8.34,-2.35 c 0.53,-0.15 1.08,0.16 1.23,0.69 0.15,0.53 -0.16,1.09 -0.69,1.24 l 0,0 -6.69,1.88 0.43,-1.68 4.93,4.9 c 0.39,0.39 0.4,1.02 0.01,1.41 -0.39,0.4 -1.03,0.4 -1.42,0.01 z" /><path
       id="path3420"
       style="fill:#000000;fill-opacity:1;fill-rule:nonzero;stroke:none"
       d="m 199.14,439.18 35.59,-37.8 -1.46,-1.37 -35.59,37.8 1.46,1.37 z m -0.14,-7.68 -1.95,8.44 8.3,-2.46 c 0.53,-0.15 0.84,-0.71 0.68,-1.24 -0.16,-0.53 -0.71,-0.83 -1.24,-0.68 l 0,0 -6.66,1.97 1.25,1.19 1.57,-6.77 c 0.12,-0.54 -0.21,-1.07 -0.75,-1.2 -0.54,-0.12 -1.07,0.21 -1.2,0.75 z" /><path
       id="path3422"
       style="fill:#000000;fill-opacity:1;fill-rule:nonzero;stroke:none"
       d="m 206.12,318.66 40.58,39.36 -1.4,1.43 -40.58,-39.35 1.4,-1.44 z m 0.21,7.68 -2.33,-8.34 8.4,2.07 c 0.54,0.14 0.87,0.68 0.74,1.21 -0.14,0.54 -0.68,0.87 -1.21,0.73 l -6.75,-1.66 1.2,-1.24 1.87,6.69 c 0.15,0.53 -0.16,1.08 -0.69,1.23 -0.53,0.15 -1.08,-0.16 -1.23,-0.69 z" /><path
       id="path3424"
       style="fill:#000000;fill-opacity:1;fill-rule:nonzero;stroke:none"
       d="m 379.58,281.62 19.89,59.03 -1.89,0.64 -19.9,-59.03 1.9,-0.64 z m -3.33,6.92 1.75,-8.48 6.52,5.7 c 0.42,0.36 0.46,0.99 0.1,1.41 -0.36,0.41 -1,0.46 -1.41,0.09 l -5.24,-4.56 1.64,-0.56 -1.4,6.81 0,0 c -0.11,0.54 -0.64,0.89 -1.18,0.78 -0.54,-0.12 -0.89,-0.64 -0.78,-1.19 z" /><path
       id="path3426"
       style="fill:#000000;fill-opacity:1;fill-rule:nonzero;stroke:none"
       d="m 492.38,416.19 -31.05,-27.85 1.34,-1.49 31.05,27.85 -1.34,1.49 z m -0.51,-7.67 2.66,8.25 -8.48,-1.75 c -0.54,-0.11 -0.89,-0.64 -0.78,-1.18 0.11,-0.54 0.64,-0.89 1.18,-0.78 l 6.8,1.4 -1.15,1.29 -2.13,-6.61 c -0.17,-0.53 0.12,-1.09 0.65,-1.26 0.52,-0.17 1.08,0.12 1.25,0.64 z" /><path
       id="path3428"
       style="fill:#000000;fill-opacity:1;fill-rule:nonzero;stroke:none"
       d="m 495.79,339.59 -34.19,14.95 0.8,1.84 34.19,-14.96 -0.8,-1.83 z m -2.89,7.11 5.1,-6.99 -8.6,-1 0,0 c -0.55,-0.06 -1.04,0.33 -1.11,0.88 -0.06,0.55 0.33,1.04 0.88,1.11 l 6.9,0.8 -0.69,-1.59 -4.1,5.62 c -0.32,0.44 -0.22,1.07 0.22,1.39 0.45,0.33 1.07,0.23 1.4,-0.22 z" /><path
       id="path3430"
       style="fill:#000000;fill-opacity:1;fill-rule:nonzero;stroke:none"
       d="m 476.36,304.1 -22.94,36.34 1.69,1.07 22.94,-36.34 -1.69,-1.07 z m 1.6,7.51 0.31,-8.65 -7.69,3.99 c -0.49,0.26 -0.68,0.86 -0.42,1.35 0.25,0.49 0.85,0.68 1.34,0.43 l 0,0 6.17,-3.21 -1.46,-0.92 -0.25,6.94 c -0.02,0.55 0.42,1.02 0.97,1.04 0.55,0.02 1.01,-0.42 1.03,-0.97 z" /><path
       id="path3432"
       style="fill:none;stroke:#000000;stroke-width:2;stroke-linecap:butt;stroke-linejoin:round;stroke-miterlimit:10;stroke-dasharray:none;stroke-opacity:1"
       d="m 402.95,429.87 77.053,0 0,32.132 -77.053,0 0,-32.132 z" /><text
       id="text3434"
       style="font-variant:normal;font-weight:bold;font-size:15.96000004px;font-family:Calibri;-inkscape-font-specification:'Calibri Bold';writing-mode:lr-tb;fill:#000000;fill-opacity:1;fill-rule:nonzero;stroke:none"
       transform="matrix(1,0,0,-1,430.25,440.52)"><tspan
         id="tspan3436"
         y="0"
         x="0 9.70368 18.194401">API</tspan></text>
<path
       id="path3438"
       style="fill:#000000;fill-opacity:1;fill-rule:nonzero;stroke:none"
       d="m 439.7,428.54 -12.86,-25.92 1.79,-0.89 12.86,25.92 -1.79,0.89 z m 2.36,-7.31 -0.58,8.64 -7.24,-4.76 c -0.46,-0.3 -0.59,-0.92 -0.28,-1.38 0.3,-0.47 0.92,-0.59 1.38,-0.29 l 0,0 5.8,3.82 -1.54,0.77 0.46,-6.93 c 0.04,-0.55 0.52,-0.97 1.07,-0.93 0.55,0.03 0.97,0.51 0.93,1.06 z" /></g></svg>