<?xml version="1.0" encoding="UTF-8" standalone="no"?>
<svg
   xmlns:dc="http://purl.org/dc/elements/1.1/"
   xmlns:cc="http://creativecommons.org/ns#"
   xmlns:rdf="http://www.w3.org/1999/02/22-rdf-syntax-ns#"
   xmlns:svg="http://www.w3.org/2000/svg"
   xmlns="http://www.w3.org/2000/svg"
   viewBox="0 0 666.46252 485.80353"
   height="485.80353"
   width="666.46252"
   xml:space="preserve"
   version="1.1"
   id="svg3440"><metadata
     id="metadata3446"><rdf:RDF><cc:Work
         rdf:about=""><dc:format>image/svg+xml</dc:format><dc:type
           rdf:resource="http://purl.org/dc/dcmitype/StillImage" /><dc:title></dc:title></cc:Work></rdf:RDF></metadata><defs
     id="defs3444"><clipPath
       id="clipPath3454"
       clipPathUnits="userSpaceOnUse"><path
         style="clip-rule:evenodd"
         id="path3456"
         d="m 0,1.2207e-4 720,0 0,539.99999793 -720,0 L 0,1.2207e-4 Z" /></clipPath></defs><g
     transform="matrix(1.25,0,0,-1.25,-141.8375,621.91602)"
     id="g3448"><path
       id="path3460"
       style="fill:none;stroke:#000000;stroke-width:2;stroke-linecap:butt;stroke-linejoin:round;stroke-miterlimit:10;stroke-dasharray:none;stroke-opacity:1"
       d="m 429.02,330 78,0 0,24 -78,0 0,-24 z" /><text
       id="text3462"
       style="font-variant:normal;font-weight:bold;font-size:18px;font-family:Calibri;-inkscape-font-specification:'Calibri Bold';writing-mode:lr-tb;fill:#000000;fill-opacity:1;fill-rule:nonzero;stroke:none"
       transform="matrix(1,0,0,-1,444.02,335.95)"><tspan
         id="tspan3464"
         y="0"
         x="0 8.5139999 17.622 24.084 32.490002 41.598">Server</tspan></text>
<path
       id="path3466"
       style="fill:#d9d9d9;fill-opacity:1;fill-rule:evenodd;stroke:none"
       d="m 162.47,269.45 90,0 0,68.132 -90,0 0,-68.132 z" /><path
       id="path3468"
       style="fill:none;stroke:#000000;stroke-width:2;stroke-linecap:butt;stroke-linejoin:round;stroke-miterlimit:10;stroke-dasharray:none;stroke-opacity:1"
       d="m 162.47,269.45 90,0 0,68.132 -90,0 0,-68.132 z" /><text
       id="text3470"
       style="font-variant:normal;font-weight:bold;font-size:18.02400017px;font-family:Calibri;-inkscape-font-specification:'Calibri Bold';writing-mode:lr-tb;fill:#000000;fill-opacity:1;fill-rule:nonzero;stroke:none"
       transform="matrix(1,0,0,-1,171.67,297.46)"><tspan
         id="tspan3472"
         y="0"
         x="0">c</tspan></text>
<text
       id="text3474"
       style="font-variant:normal;font-weight:bold;font-size:18.02400017px;font-family:Calibri;-inkscape-font-specification:'Calibri Bold';writing-mode:lr-tb;fill:#000000;fill-opacity:1;fill-rule:nonzero;stroke:none"
       transform="matrix(1,0,0,-1,179.23,297.46)"><tspan
         id="tspan3476"
         y="0"
         x="0 4.4339042 8.8678083 17.987951 27.468576 33.722904 38.535313 47.276951 55.081345">lient.exe</tspan></text>
<path
       id="path3478"
       style="fill:none;stroke:#000000;stroke-width:2;stroke-linecap:butt;stroke-linejoin:round;stroke-miterlimit:10;stroke-dasharray:none;stroke-opacity:1"
       d="m 114.47,259.58 150,0 0,90 -150,0 0,-90 z" /><text
       id="text3480"
       style="font-variant:normal;font-weight:bold;font-size:14.03999996px;font-family:Calibri;-inkscape-font-specification:'Calibri Bold';writing-mode:lr-tb;fill:#000000;fill-opacity:1;fill-rule:nonzero;stroke:none"
       transform="matrix(1,0,0,-1,115.22,354.96)"><tspan
         id="tspan3482"
         y="0"
         x="0 8.8451996 15.94944 21.551399 28.19232 32.993999 40.54752">Desktop</tspan></text>
<path
       id="path3484"
       style="fill:#d9d9d9;fill-opacity:1;fill-rule:evenodd;stroke:none"
       d="m 225.72,393.24 90,0 0,68.132 -90,0 0,-68.132 z" /><path
       id="path3486"
       style="fill:none;stroke:#000000;stroke-width:2;stroke-linecap:butt;stroke-linejoin:round;stroke-miterlimit:10;stroke-dasharray:none;stroke-opacity:1"
       d="m 225.72,393.24 90,0 0,68.132 -90,0 0,-68.132 z" /><text
       id="text3488"
       style="font-variant:normal;font-weight:bold;font-size:18px;font-family:Calibri;-inkscape-font-specification:'Calibri Bold';writing-mode:lr-tb;fill:#000000;fill-opacity:1;fill-rule:nonzero;stroke:none"
       transform="matrix(1,0,0,-1,234.91,421.27)"><tspan
         id="tspan3490"
         y="0"
         x="0 7.5240002 11.952 16.416 25.524 35.009998 41.256001 46.062 54.810001 62.604">client.exe</tspan></text>
<path
       id="path3492"
       style="fill:none;stroke:#000000;stroke-width:2;stroke-linecap:butt;stroke-linejoin:round;stroke-miterlimit:10;stroke-dasharray:none;stroke-opacity:1"
       d="m 177.72,383.37 150,0 0,90 -150,0 0,-90 z" /><text
       id="text3494"
       style="font-variant:normal;font-weight:bold;font-size:14.03999996px;font-family:Calibri;-inkscape-font-specification:'Calibri Bold';writing-mode:lr-tb;fill:#000000;fill-opacity:1;fill-rule:nonzero;stroke:none"
       transform="matrix(1,0,0,-1,178.46,478.78)"><tspan
         id="tspan3496"
         y="0"
         x="0 8.8451996 15.94944 21.551399 28.19232 32.993999 40.54752">Desktop</tspan></text>
<path
       id="path3498"
       style="fill:#d9d9d9;fill-opacity:1;fill-rule:evenodd;stroke:none"
       d="m 360,119.76 90,0 0,68.132 -90,0 0,-68.132 z" /><path
       id="path3500"
       style="fill:none;stroke:#000000;stroke-width:2;stroke-linecap:butt;stroke-linejoin:round;stroke-miterlimit:10;stroke-dasharray:none;stroke-opacity:1"
       d="m 360,119.76 90,0 0,68.132 -90,0 0,-68.132 z" /><text
       id="text3502"
       style="font-variant:normal;font-weight:bold;font-size:18px;font-family:Calibri;-inkscape-font-specification:'Calibri Bold';writing-mode:lr-tb;fill:#000000;fill-opacity:1;fill-rule:nonzero;stroke:none"
       transform="matrix(1,0,0,-1,369.22,147.74)"><tspan
         id="tspan3504"
         y="0"
         x="0">c</tspan></text>
<text
       id="text3506"
       style="font-variant:normal;font-weight:bold;font-size:18px;font-family:Calibri;-inkscape-font-specification:'Calibri Bold';writing-mode:lr-tb;fill:#000000;fill-opacity:1;fill-rule:nonzero;stroke:none"
       transform="matrix(1,0,0,-1,376.78,147.74)"><tspan
         id="tspan3508"
         y="0"
         x="0 4.428 8.8559999 17.982 27.468 33.714001 38.52 47.268002 55.062">lient.exe</tspan></text>
<path
       id="path3510"
       style="fill:none;stroke:#000000;stroke-width:2;stroke-linecap:butt;stroke-linejoin:round;stroke-miterlimit:10;stroke-dasharray:none;stroke-opacity:1"
       d="m 312,109.89 150,0 0,90 -150,0 0,-90 z" /><text
       id="text3512"
       style="font-variant:normal;font-weight:bold;font-size:14.03999996px;font-family:Calibri;-inkscape-font-specification:'Calibri Bold';writing-mode:lr-tb;fill:#000000;fill-opacity:1;fill-rule:nonzero;stroke:none"
       transform="matrix(1,0,0,-1,312.77,205.25)"><tspan
         id="tspan3514"
         y="0"
         x="0 8.8451996 15.94944 21.551399 28.19232 32.993999 40.54752">Desktop</tspan></text>
<path
       id="path3516"
       style="fill:#d9d9d9;fill-opacity:1;fill-rule:evenodd;stroke:none"
       d="m 543.64,402.44 90,0 0,68.132 -90,0 0,-68.132 z" /><path
       id="path3518"
       style="fill:none;stroke:#000000;stroke-width:2;stroke-linecap:butt;stroke-linejoin:round;stroke-miterlimit:10;stroke-dasharray:none;stroke-opacity:1"
       d="m 543.64,402.44 90,0 0,68.132 -90,0 0,-68.132 z" /><text
       id="text3520"
       style="font-variant:normal;font-weight:bold;font-size:18px;font-family:Calibri;-inkscape-font-specification:'Calibri Bold';writing-mode:lr-tb;fill:#000000;fill-opacity:1;fill-rule:nonzero;stroke:none"
       transform="matrix(1,0,0,-1,552.89,430.49)"><tspan
         id="tspan3522"
         y="0"
         x="0">c</tspan></text>
<text
       id="text3524"
       style="font-variant:normal;font-weight:bold;font-size:18px;font-family:Calibri;-inkscape-font-specification:'Calibri Bold';writing-mode:lr-tb;fill:#000000;fill-opacity:1;fill-rule:nonzero;stroke:none"
       transform="matrix(1,0,0,-1,560.45,430.49)"><tspan
         id="tspan3526"
         y="0"
         x="0 4.428 8.8559999 17.982 27.468 33.714001 38.52 47.268002 55.062">lient.exe</tspan></text>
<path
       id="path3528"
       style="fill:none;stroke:#000000;stroke-width:2;stroke-linecap:butt;stroke-linejoin:round;stroke-miterlimit:10;stroke-dasharray:none;stroke-opacity:1"
       d="m 495.64,392.57 150,0 0,90 -150,0 0,-90 z" /><text
       id="text3530"
       style="font-variant:normal;font-weight:bold;font-size:14.03999996px;font-family:Calibri;-inkscape-font-specification:'Calibri Bold';writing-mode:lr-tb;fill:#000000;fill-opacity:1;fill-rule:nonzero;stroke:none"
       transform="matrix(1,0,0,-1,496.44,487.99)"><tspan
         id="tspan3532"
         y="0"
         x="0 8.8451996 15.94944 21.551399 28.19232 32.993999 40.54752">Desktop</tspan></text>
<path
       id="path3534"
       style="fill:#d9d9d9;fill-opacity:1;fill-rule:evenodd;stroke:none"
       d="m 519.88,190.14 90,0 0,68.132 -90,0 0,-68.132 z" /><path
       id="path3536"
       style="fill:none;stroke:#000000;stroke-width:2;stroke-linecap:butt;stroke-linejoin:round;stroke-miterlimit:10;stroke-dasharray:none;stroke-opacity:1"
       d="m 519.88,190.14 90,0 0,68.132 -90,0 0,-68.132 z" /><text
       id="text3538"
       style="font-variant:normal;font-weight:bold;font-size:18.02400017px;font-family:Calibri;-inkscape-font-specification:'Calibri Bold';writing-mode:lr-tb;fill:#000000;fill-opacity:1;fill-rule:nonzero;stroke:none"
       transform="matrix(1,0,0,-1,529.13,218.14)"><tspan
         id="tspan3540"
         y="0"
         x="0">c</tspan></text>
<text
       id="text3542"
       style="font-variant:normal;font-weight:bold;font-size:18.02400017px;font-family:Calibri;-inkscape-font-specification:'Calibri Bold';writing-mode:lr-tb;fill:#000000;fill-opacity:1;fill-rule:nonzero;stroke:none"
       transform="matrix(1,0,0,-1,536.69,218.14)"><tspan
         id="tspan3544"
         y="0"
         x="0 4.4339042 8.8678083 17.987951 27.468576 33.722904 38.535313 47.276951 55.081345">lient.exe</tspan></text>
<path
       id="path3546"
       style="fill:none;stroke:#000000;stroke-width:2;stroke-linecap:butt;stroke-linejoin:round;stroke-miterlimit:10;stroke-dasharray:none;stroke-opacity:1"
       d="m 471.88,180.28 150,0 0,90 -150,0 0,-90 z" /><text
       id="text3548"
       style="font-variant:normal;font-weight:bold;font-size:14.03999996px;font-family:Calibri;-inkscape-font-specification:'Calibri Bold';writing-mode:lr-tb;fill:#000000;fill-opacity:1;fill-rule:nonzero;stroke:none"
       transform="matrix(1,0,0,-1,472.68,275.64)"><tspan
         id="tspan3550"
         y="0"
         x="0 8.8451996 15.94944 21.551399 28.19232 32.993999 40.54752">Desktop</tspan></text>
<path
       id="path3552"
       style="fill:none;stroke:#000000;stroke-width:2;stroke-linecap:butt;stroke-linejoin:round;stroke-miterlimit:10;stroke-dasharray:none;stroke-opacity:1"
       d="m 327,286.82 78,0 0,22.184 -78,0 0,-22.184 z" /><text
       id="text3554"
       style="font-variant:normal;font-weight:bold;font-size:18px;font-family:Calibri;-inkscape-font-specification:'Calibri Bold';writing-mode:lr-tb;fill:#000000;fill-opacity:1;fill-rule:nonzero;stroke:none"
       transform="matrix(1,0,0,-1,341.98,291.86)"><tspan
         id="tspan3556"
         y="0"
         x="0 8.5139999 17.622 24.084 32.490002 41.598">Server</tspan></text>
<path
       id="path3558"
       style="fill:#000000;fill-opacity:1;fill-rule:nonzero;stroke:none"
       d="m 252.55,304.51 72.55,-5.46 -0.15,-1.99 -72.55,5.46 0.15,1.99 z m 67.32,-1.69 7.13,-4.91 -7.78,-3.79 c -0.5,-0.24 -1.1,-0.04 -1.34,0.46 -0.24,0.5 -0.03,1.09 0.46,1.34 l 6.25,3.04 -0.13,-1.73 -5.72,3.94 c -0.46,0.32 -0.57,0.94 -0.26,1.39 0.31,0.46 0.94,0.57 1.39,0.26 z" /><path
       id="path3560"
       style="fill:#000000;fill-opacity:1;fill-rule:nonzero;stroke:none"
       d="m 279.62,393.96 85.65,-82.86 -1.39,-1.44 -85.65,82.86 1.39,1.44 z m 84.04,-76.63 2.34,-8.33 -8.41,2.06 c -0.53,0.13 -0.86,0.68 -0.73,1.21 0.13,0.54 0.67,0.87 1.21,0.73 l 6.75,-1.65 -1.21,-1.24 -1.87,6.68 c -0.15,0.54 0.16,1.09 0.69,1.24 0.53,0.15 1.08,-0.16 1.23,-0.7 z" /><path
       id="path3562"
       style="fill:#000000;fill-opacity:1;fill-rule:nonzero;stroke:none"
       d="m 542.8,437.05 -53.38,-80.85 1.67,-1.1 53.38,80.85 -1.67,1.1 z m -53.16,-74.41 -0.48,-8.64 7.77,3.83 c 0.49,0.25 0.69,0.85 0.45,1.34 -0.25,0.5 -0.84,0.7 -1.34,0.46 l -6.23,-3.08 1.44,-0.95 0.39,6.93 c 0.03,0.55 -0.39,1.03 -0.94,1.06 -0.55,0.03 -1.03,-0.4 -1.06,-0.95 z" /><path
       id="path3564"
       style="fill:#000000;fill-opacity:1;fill-rule:nonzero;stroke:none"
       d="m 564.19,257.55 -74.28,70.36 1.38,1.45 74.27,-70.36 -1.37,-1.45 z m -72.6,64.14 -2.43,8.31 8.43,-1.97 c 0.54,-0.13 0.88,-0.67 0.75,-1.21 -0.13,-0.53 -0.66,-0.87 -1.2,-0.74 l -6.77,1.58 1.19,1.26 1.95,-6.67 c 0.16,-0.53 -0.15,-1.08 -0.68,-1.24 -0.53,-0.15 -1.08,0.15 -1.24,0.68 z" /><path
       id="path3566"
       style="fill:#000000;fill-opacity:1;fill-rule:nonzero;stroke:none"
       d="m 395.04,187.6 -29.42,97.03 1.91,0.58 29.43,-97.02 -1.92,-0.59 z m -31.05,90.8 2.01,8.42 6.35,-5.89 c 0.4,-0.38 0.42,-1.01 0.05,-1.42 -0.38,-0.4 -1.01,-0.42 -1.42,-0.05 l -5.09,4.73 1.66,0.5 -1.61,-6.76 c -0.13,-0.54 -0.67,-0.87 -1.2,-0.74 -0.54,0.13 -0.87,0.67 -0.75,1.21 z" /></g></svg>