<?xml version="1.0" encoding="UTF-8" standalone="no"?>
<svg
   xmlns:dc="http://purl.org/dc/elements/1.1/"
   xmlns:cc="http://creativecommons.org/ns#"
   xmlns:rdf="http://www.w3.org/1999/02/22-rdf-syntax-ns#"
   xmlns:svg="http://www.w3.org/2000/svg"
   xmlns="http://www.w3.org/2000/svg"
   viewBox="0 0 571.31622 290.16501"
   height="290.16501"
   width="571.31622"
   xml:space="preserve"
   version="1.1"
   id="svg3568"><metadata
     id="metadata3574"><rdf:RDF><cc:Work
         rdf:about=""><dc:format>image/svg+xml</dc:format><dc:type
           rdf:resource="http://purl.org/dc/dcmitype/StillImage" /><dc:title></dc:title></cc:Work></rdf:RDF></metadata><defs
     id="defs3572"><clipPath
       id="clipPath3582"
       clipPathUnits="userSpaceOnUse"><path
         style="clip-rule:evenodd"
         id="path3584"
         d="m 0,1.2207e-4 720,0 0,539.99999793 -720,0 L 0,1.2207e-4 Z" /></clipPath></defs><g
     transform="matrix(1.25,0,0,-1.25,-148.75,578.7525)"
     id="g3576"><path
       id="path3588"
       style="fill:none;stroke:#000000;stroke-width:2;stroke-linecap:butt;stroke-linejoin:round;stroke-miterlimit:10;stroke-dasharray:none;stroke-opacity:1"
       d="m 234,358.74 96,0 0,61.105 -96,0 0,-61.105 z" /><text
       id="text3590"
       style="font-variant:normal;font-weight:bold;font-size:18px;font-family:Calibri;-inkscape-font-specification:'Calibri Bold';writing-mode:lr-tb;fill:#000000;fill-opacity:1;fill-rule:nonzero;stroke:none"
       transform="matrix(1,0,0,-1,257.98,383.26)"><tspan
         id="tspan3592"
         y="0"
         x="0 8.5139999 17.622 24.084 32.490002 41.598">Server</tspan></text>
<path
       id="path3594"
       style="fill:none;stroke:#000000;stroke-width:2;stroke-linecap:butt;stroke-linejoin:round;stroke-miterlimit:10;stroke-dasharray:none;stroke-opacity:1"
       d="m 120,423.87 77.053,0 0,32.132 -77.053,0 0,-32.132 z" /><text
       id="text3596"
       style="font-variant:normal;font-weight:bold;font-size:15.96000004px;font-family:Calibri;-inkscape-font-specification:'Calibri Bold';writing-mode:lr-tb;fill:#000000;fill-opacity:1;fill-rule:nonzero;stroke:none"
       transform="matrix(1,0,0,-1,131.06,434.52)"><tspan
         id="tspan3598"
         y="0"
         x="0 8.9535599 14.39592 23.01432 34.77684 41.144878 49.17276">Browser</tspan></text>
<path
       id="path3600"
       style="fill:none;stroke:#000000;stroke-width:2;stroke-linecap:butt;stroke-linejoin:round;stroke-miterlimit:10;stroke-dasharray:none;stroke-opacity:1"
       d="m 132,355.46 77.053,0 0,32.132 -77.053,0 0,-32.132 z" /><text
       id="text3602"
       style="font-variant:normal;font-weight:bold;font-size:15.96000004px;font-family:Calibri;-inkscape-font-specification:'Calibri Bold';writing-mode:lr-tb;fill:#000000;fill-opacity:1;fill-rule:nonzero;stroke:none"
       transform="matrix(1,0,0,-1,143.06,366.1)"><tspan
         id="tspan3604"
         y="0"
         x="0 8.9535599 14.39592 23.01432 34.77684 41.144878 49.17276">Browser</tspan></text>
<path
       id="path3606"
       style="fill:none;stroke:#000000;stroke-width:2;stroke-linecap:butt;stroke-linejoin:round;stroke-miterlimit:10;stroke-dasharray:none;stroke-opacity:1"
       d="m 144,285.87 77.053,0 0,32.132 -77.053,0 0,-32.132 z" /><text
       id="text3608"
       style="font-variant:normal;font-weight:bold;font-size:15.96000004px;font-family:Calibri;-inkscape-font-specification:'Calibri Bold';writing-mode:lr-tb;fill:#000000;fill-opacity:1;fill-rule:nonzero;stroke:none"
       transform="matrix(1,0,0,-1,155.06,296.5)"><tspan
         id="tspan3610"
         y="0"
         x="0 8.9535599 14.39592 23.01432 34.77684 41.144878 49.17276">Browser</tspan></text>
<path
       id="path3612"
       style="fill:none;stroke:#000000;stroke-width:2;stroke-linecap:butt;stroke-linejoin:round;stroke-miterlimit:10;stroke-dasharray:none;stroke-opacity:1"
       d="m 498,323.64 77.053,0 0,32.132 -77.053,0 0,-32.132 z" /><text
       id="text3614"
       style="font-variant:normal;font-weight:bold;font-size:15.96000004px;font-family:Calibri;-inkscape-font-specification:'Calibri Bold';writing-mode:lr-tb;fill:#000000;fill-opacity:1;fill-rule:nonzero;stroke:none"
       transform="matrix(1,0,0,-1,509.11,334.27)"><tspan
         id="tspan3616"
         y="0"
         x="0 8.9535599 14.39592 23.01432 34.77684 41.144878 49.17276">Browser</tspan></text>
<path
       id="path3618"
       style="fill:none;stroke:#000000;stroke-width:2;stroke-linecap:butt;stroke-linejoin:round;stroke-miterlimit:10;stroke-dasharray:none;stroke-opacity:1"
       d="m 258,231.87 77.053,0 0,32.132 -77.053,0 0,-32.132 z" /><text
       id="text3620"
       style="font-variant:normal;font-weight:bold;font-size:15.96000004px;font-family:Calibri;-inkscape-font-specification:'Calibri Bold';writing-mode:lr-tb;fill:#000000;fill-opacity:1;fill-rule:nonzero;stroke:none"
       transform="matrix(1,0,0,-1,269.09,242.47)"><tspan
         id="tspan3622"
         y="0"
         x="0 8.9535599 14.39592 23.01432 34.77684 41.144878 49.17276">Browser</tspan></text>
<path
       id="path3624"
       style="fill:none;stroke:#000000;stroke-width:2;stroke-linecap:butt;stroke-linejoin:round;stroke-miterlimit:10;stroke-dasharray:none;stroke-opacity:1"
       d="m 360,247.93 77.053,0 0,32.132 -77.053,0 0,-32.132 z" /><text
       id="text3626"
       style="font-variant:normal;font-weight:bold;font-size:15.96000004px;font-family:Calibri;-inkscape-font-specification:'Calibri Bold';writing-mode:lr-tb;fill:#000000;fill-opacity:1;fill-rule:nonzero;stroke:none"
       transform="matrix(1,0,0,-1,371.09,258.55)"><tspan
         id="tspan3628"
         y="0"
         x="0 8.9535599 14.39592 23.01432 34.77684 41.144878 49.17276">Browser</tspan></text>
<path
       id="path3630"
       style="fill:none;stroke:#000000;stroke-width:2;stroke-linecap:butt;stroke-linejoin:round;stroke-miterlimit:10;stroke-dasharray:none;stroke-opacity:1"
       d="m 456,270.36 77.053,0 0,32.132 -77.053,0 0,-32.132 z" /><text
       id="text3632"
       style="font-variant:normal;font-weight:bold;font-size:15.96000004px;font-family:Calibri;-inkscape-font-specification:'Calibri Bold';writing-mode:lr-tb;fill:#000000;fill-opacity:1;fill-rule:nonzero;stroke:none"
       transform="matrix(1,0,0,-1,467.11,280.97)"><tspan
         id="tspan3634"
         y="0"
         x="0 8.9535599 14.39592 23.01432 34.77684 41.144878 49.17276">Browser</tspan></text>
<path
       id="path3636"
       style="fill:none;stroke:#000000;stroke-width:2;stroke-linecap:butt;stroke-linejoin:round;stroke-miterlimit:10;stroke-dasharray:none;stroke-opacity:1"
       d="m 366,340.97 96,0 0,61.105 -96,0 0,-61.105 z" /><text
       id="text3638"
       style="font-variant:normal;font-weight:bold;font-size:18px;font-family:Calibri;-inkscape-font-specification:'Calibri Bold';writing-mode:lr-tb;fill:#000000;fill-opacity:1;fill-rule:nonzero;stroke:none"
       transform="matrix(1,0,0,-1,390,365.5)"><tspan
         id="tspan3640"
         y="0"
         x="0 8.5139999 17.622 24.084 32.490002 41.598">Server</tspan></text>
<path
       id="path3642"
       style="fill:none;stroke:#000000;stroke-width:2;stroke-linecap:butt;stroke-linejoin:round;stroke-miterlimit:10;stroke-dasharray:none;stroke-opacity:1"
       d="m 494.53,400.7 77.053,0 0,32.132 -77.053,0 0,-32.132 z" /><text
       id="text3644"
       style="font-variant:normal;font-weight:bold;font-size:15.96000004px;font-family:Calibri;-inkscape-font-specification:'Calibri Bold';writing-mode:lr-tb;fill:#000000;fill-opacity:1;fill-rule:nonzero;stroke:none"
       transform="matrix(1,0,0,-1,505.63,411.34)"><tspan
         id="tspan3646"
         y="0"
         x="0 8.9535599 14.39592 23.01432 34.792801 41.160839 49.188721">Browser</tspan></text>
<path
       id="path3648"
       style="fill:#000000;fill-opacity:1;fill-rule:nonzero;stroke:none"
       d="m 295.54,263.85 -14.23,92.78 1.98,0.3 14.22,-92.78 -1.97,-0.3 z m -16.72,86.84 3.18,8.05 5.45,-6.73 c 0.34,-0.43 0.28,-1.06 -0.15,-1.41 -0.43,-0.35 -1.06,-0.28 -1.41,0.15 l -4.37,5.4 1.71,0.26 -2.55,-6.46 c -0.2,-0.51 -0.78,-0.76 -1.3,-0.56 -0.51,0.2 -0.76,0.78 -0.56,1.3 z" /><path
       id="path3650"
       style="fill:#000000;fill-opacity:1;fill-rule:nonzero;stroke:none"
       d="m 209.3,370.56 23.03,5.97 -0.5,1.94 -23.03,-5.98 0.5,-1.93 z m 18.56,1.34 6.14,6.1 -8.33,2.35 c -0.53,0.15 -1.09,-0.16 -1.24,-0.7 -0.15,-0.53 0.16,-1.08 0.7,-1.23 l 6.68,-1.88 -0.43,1.67 -4.93,-4.89 c -0.39,-0.39 -0.39,-1.02 0,-1.42 0.38,-0.39 1.02,-0.39 1.41,0 z" /><path
       id="path3652"
       style="fill:#000000;fill-opacity:1;fill-rule:nonzero;stroke:none"
       d="m 197.78,440.62 35.59,-37.8 -1.46,-1.37 -35.59,37.8 1.46,1.37 z m 34.27,-31.49 1.95,-8.44 -8.3,2.46 c -0.53,0.16 -0.83,0.71 -0.68,1.24 0.16,0.53 0.71,0.83 1.24,0.68 l 0,0 6.67,-1.97 -1.26,-1.19 -1.57,6.77 c -0.12,0.54 0.21,1.08 0.75,1.2 0.54,0.13 1.08,-0.21 1.2,-0.75 z" /><path
       id="path3654"
       style="fill:#000000;fill-opacity:1;fill-rule:nonzero;stroke:none"
       d="m 204.7,317.28 40.57,39.36 -1.39,1.44 -40.58,-39.36 1.4,-1.44 z m 38.97,33.12 2.33,8.34 -8.4,-2.08 c -0.54,-0.13 -0.87,-0.67 -0.74,-1.21 0.14,-0.53 0.68,-0.86 1.21,-0.73 l 6.75,1.67 -1.2,1.24 -1.87,-6.69 c -0.15,-0.53 0.16,-1.09 0.69,-1.23 0.53,-0.15 1.08,0.16 1.23,0.69 z" /><path
       id="path3656"
       style="fill:#000000;fill-opacity:1;fill-rule:nonzero;stroke:none"
       d="m 378.95,279.75 19.89,59.03 -1.89,0.64 -19.9,-59.03 1.9,-0.64 z m 21.32,52.75 -1.74,8.48 -6.53,-5.7 c -0.41,-0.36 -0.46,-0.99 -0.09,-1.41 0.36,-0.41 0.99,-0.46 1.41,-0.09 l 5.23,4.56 -1.64,0.56 1.4,-6.81 c 0.12,-0.54 0.65,-0.89 1.19,-0.78 0.54,0.12 0.89,0.64 0.77,1.19 z" /><path
       id="path3658"
       style="fill:#000000;fill-opacity:1;fill-rule:nonzero;stroke:none"
       d="m 493.86,417.51 -31.05,-27.85 1.33,-1.49 31.05,27.85 -1.33,1.49 z m -29.21,-21.68 -2.65,-8.24 8.48,1.75 c 0.54,0.11 0.89,0.64 0.78,1.18 -0.11,0.54 -0.64,0.89 -1.18,0.77 l -6.81,-1.4 1.16,-1.28 2.13,6.61 c 0.17,0.52 -0.12,1.09 -0.65,1.26 -0.53,0.17 -1.09,-0.12 -1.26,-0.65 z" /><path
       id="path3660"
       style="fill:#000000;fill-opacity:1;fill-rule:nonzero;stroke:none"
       d="m 497.6,338.79 -34.19,14.96 0.8,1.83 34.19,-14.95 -0.8,-1.84 z m -30.5,9.68 -5.1,6.99 8.6,1 c 0.55,0.07 1.04,-0.33 1.11,-0.88 0.06,-0.54 -0.33,-1.04 -0.88,-1.1 l -6.9,-0.81 0.69,1.59 4.1,-5.62 c 0.32,-0.44 0.22,-1.07 -0.22,-1.39 -0.45,-0.33 -1.07,-0.23 -1.4,0.22 z" /><path
       id="path3662"
       style="fill:#000000;fill-opacity:1;fill-rule:nonzero;stroke:none"
       d="m 477.42,302.43 -22.95,36.34 1.7,1.06 22.94,-36.34 -1.69,-1.06 z m -22.86,29.89 -0.3,8.66 7.68,-4 c 0.49,-0.25 0.68,-0.86 0.43,-1.35 -0.25,-0.49 -0.86,-0.68 -1.35,-0.42 l -6.16,3.2 1.46,0.92 0.24,-6.94 c 0.02,-0.55 -0.41,-1.01 -0.96,-1.03 -0.55,-0.02 -1.02,0.41 -1.04,0.96 z" /><path
       id="path3664"
       style="fill:none;stroke:#000000;stroke-width:2;stroke-linecap:butt;stroke-linejoin:round;stroke-miterlimit:10;stroke-dasharray:none;stroke-opacity:1"
       d="m 402.95,429.87 77.053,0 0,32.132 -77.053,0 0,-32.132 z" /><text
       id="text3666"
       style="font-variant:normal;font-weight:bold;font-size:15.96000004px;font-family:Calibri;-inkscape-font-specification:'Calibri Bold';writing-mode:lr-tb;fill:#000000;fill-opacity:1;fill-rule:nonzero;stroke:none"
       transform="matrix(1,0,0,-1,414.05,440.52)"><tspan
         id="tspan3668"
         y="0"
         x="0 8.9535599 14.39592 23.01432 34.77684 41.144878 49.17276">Browser</tspan></text>
<path
       id="path3670"
       style="fill:#000000;fill-opacity:1;fill-rule:nonzero;stroke:none"
       d="m 440.58,430.31 -12.86,-25.91 1.79,-0.89 12.86,25.91 -1.79,0.89 z m -13.43,-19.5 0.58,-8.64 7.24,4.77 c 0.46,0.3 0.59,0.92 0.28,1.38 -0.3,0.46 -0.92,0.59 -1.38,0.29 l 0,0 -5.8,-3.82 1.54,-0.77 -0.46,6.93 c -0.04,0.55 -0.52,0.97 -1.07,0.93 -0.55,-0.04 -0.97,-0.51 -0.93,-1.07 z" /></g></svg>