<?xml version="1.0" encoding="UTF-8" standalone="no"?>
<svg
   xmlns:dc="http://purl.org/dc/elements/1.1/"
   xmlns:cc="http://creativecommons.org/ns#"
   xmlns:rdf="http://www.w3.org/1999/02/22-rdf-syntax-ns#"
   xmlns:svg="http://www.w3.org/2000/svg"
   xmlns="http://www.w3.org/2000/svg"
   viewBox="0 0 631.31622 384.465"
   height="384.465"
   width="631.31622"
   xml:space="preserve"
   version="1.1"
   id="svg3672"><metadata
     id="metadata3678"><rdf:RDF><cc:Work
         rdf:about=""><dc:format>image/svg+xml</dc:format><dc:type
           rdf:resource="http://purl.org/dc/dcmitype/StillImage" /><dc:title></dc:title></cc:Work></rdf:RDF></metadata><defs
     id="defs3676"><clipPath
       id="clipPath3686"
       clipPathUnits="userSpaceOnUse"><path
         style="clip-rule:evenodd"
         id="path3688"
         d="m 0,1.2207e-4 720,0 0,539.99999793 -720,0 L 0,1.2207e-4 Z" /></clipPath></defs><g
     transform="matrix(1.25,0,0,-1.25,-133.75,570.465)"
     id="g3680"><path
       id="path3692"
       style="fill:none;stroke:#000000;stroke-width:2;stroke-linecap:butt;stroke-linejoin:round;stroke-miterlimit:10;stroke-dasharray:none;stroke-opacity:1"
       d="m 284.68,240.04 158.53,0 0,126 -158.53,0 0,-126 z" /><text
       id="text3694"
       style="font-variant:normal;font-weight:bold;font-size:20.04000092px;font-family:Calibri;-inkscape-font-specification:'Calibri Bold';writing-mode:lr-tb;fill:#000000;fill-opacity:1;fill-rule:nonzero;stroke:none"
       transform="matrix(1,0,0,-1,317.83,296.28)"><tspan
         id="tspan3696"
         y="0"
         x="0 17.514959 27.414721 32.284439 42.965759 49.298401 55.931641 65.831398 82.123917">Mainframe</tspan></text>
<path
       id="path3698"
       style="fill:none;stroke:#000000;stroke-width:2;stroke-linecap:butt;stroke-linejoin:round;stroke-miterlimit:10;stroke-dasharray:none;stroke-opacity:1"
       d="m 337.89,149.8 77.053,0 0,32.132 -77.053,0 0,-32.132 z" /><text
       id="text3700"
       style="font-variant:normal;font-weight:bold;font-size:15.96000004px;font-family:Calibri;-inkscape-font-specification:'Calibri Bold';writing-mode:lr-tb;fill:#000000;fill-opacity:1;fill-rule:nonzero;stroke:none"
       transform="matrix(1,0,0,-1,347.66,160.39)"><tspan
         id="tspan3702"
         y="0"
         x="0 6.4797602 14.50764 20.173441 33.148918 37.075081 45.645599 53.529839">Terminal</tspan></text>
<path
       id="path3704"
       style="fill:none;stroke:#000000;stroke-width:2;stroke-linecap:butt;stroke-linejoin:round;stroke-miterlimit:10;stroke-dasharray:none;stroke-opacity:1"
       d="m 205.89,165.87 77.053,0 0,32.132 -77.053,0 0,-32.132 z" /><text
       id="text3706"
       style="font-variant:normal;font-weight:bold;font-size:15.96000004px;font-family:Calibri;-inkscape-font-specification:'Calibri Bold';writing-mode:lr-tb;fill:#000000;fill-opacity:1;fill-rule:nonzero;stroke:none"
       transform="matrix(1,0,0,-1,215.64,176.47)"><tspan
         id="tspan3708"
         y="0"
         x="0 6.4797602 14.50764 20.173441 33.148918 37.075081 45.645599 53.529839">Terminal</tspan></text>
<path
       id="path3710"
       style="fill:none;stroke:#000000;stroke-width:2;stroke-linecap:butt;stroke-linejoin:round;stroke-miterlimit:10;stroke-dasharray:none;stroke-opacity:1"
       d="m 412.34,409.93 77.053,0 0,32.132 -77.053,0 0,-32.132 z" /><text
       id="text3712"
       style="font-variant:normal;font-weight:bold;font-size:15.96000004px;font-family:Calibri;-inkscape-font-specification:'Calibri Bold';writing-mode:lr-tb;fill:#000000;fill-opacity:1;fill-rule:nonzero;stroke:none"
       transform="matrix(1,0,0,-1,422.14,420.58)"><tspan
         id="tspan3714"
         y="0"
         x="0 6.4797602 14.50764 20.173441 33.148918 37.075081 45.645599 53.529839">Terminal</tspan></text>
<path
       id="path3716"
       style="fill:none;stroke:#000000;stroke-width:2;stroke-linecap:butt;stroke-linejoin:round;stroke-miterlimit:10;stroke-dasharray:none;stroke-opacity:1"
       d="m 465.47,179.86 77.053,0 0,32.132 -77.053,0 0,-32.132 z" /><text
       id="text3718"
       style="font-variant:normal;font-weight:bold;font-size:15.96000004px;font-family:Calibri;-inkscape-font-specification:'Calibri Bold';writing-mode:lr-tb;fill:#000000;fill-opacity:1;fill-rule:nonzero;stroke:none"
       transform="matrix(1,0,0,-1,475.27,190.46)"><tspan
         id="tspan3720"
         y="0"
         x="0 6.4797602 14.50764 20.173441 33.148918 37.075081 45.645599 53.529839">Terminal</tspan></text>
<path
       id="path3722"
       style="fill:none;stroke:#000000;stroke-width:2;stroke-linecap:butt;stroke-linejoin:round;stroke-miterlimit:10;stroke-dasharray:none;stroke-opacity:1"
       d="m 522,339.87 77.053,0 0,32.132 -77.053,0 0,-32.132 z" /><text
       id="text3724"
       style="font-variant:normal;font-weight:bold;font-size:15.96000004px;font-family:Calibri;-inkscape-font-specification:'Calibri Bold';writing-mode:lr-tb;fill:#000000;fill-opacity:1;fill-rule:nonzero;stroke:none"
       transform="matrix(1,0,0,-1,531.79,350.5)"><tspan
         id="tspan3726"
         y="0"
         x="0 6.4797602 14.50764 20.173441 33.148918 37.075081 45.645599 53.529839">Terminal</tspan></text>
<path
       id="path3728"
       style="fill:none;stroke:#000000;stroke-width:2;stroke-linecap:butt;stroke-linejoin:round;stroke-miterlimit:10;stroke-dasharray:none;stroke-opacity:1"
       d="m 108,242.92 77.053,0 0,32.132 -77.053,0 0,-32.132 z" /><text
       id="text3730"
       style="font-variant:normal;font-weight:bold;font-size:15.96000004px;font-family:Calibri;-inkscape-font-specification:'Calibri Bold';writing-mode:lr-tb;fill:#000000;fill-opacity:1;fill-rule:nonzero;stroke:none"
       transform="matrix(1,0,0,-1,117.74,253.54)"><tspan
         id="tspan3732"
         y="0"
         x="0 6.4797602 14.50764 20.173441 33.148918 37.075081 45.645599 53.529839">Terminal</tspan></text>
<path
       id="path3734"
       style="fill:none;stroke:#000000;stroke-width:2;stroke-linecap:butt;stroke-linejoin:round;stroke-miterlimit:10;stroke-dasharray:none;stroke-opacity:1"
       d="m 270,423.24 77.053,0 0,32.132 -77.053,0 0,-32.132 z" /><text
       id="text3736"
       style="font-variant:normal;font-weight:bold;font-size:15.98400021px;font-family:Calibri;-inkscape-font-specification:'Calibri Bold';writing-mode:lr-tb;fill:#000000;fill-opacity:1;fill-rule:nonzero;stroke:none"
       transform="matrix(1,0,0,-1,279.77,433.87)"><tspan
         id="tspan3738"
         y="0"
         x="0 6.4735198 14.513472 20.187792 33.118847 37.050911 45.634319 53.530415">Terminal</tspan></text>
<path
       id="path3740"
       style="fill:none;stroke:#000000;stroke-width:2;stroke-linecap:butt;stroke-linejoin:round;stroke-miterlimit:10;stroke-dasharray:none;stroke-opacity:1"
       d="m 150,339.87 77.053,0 0,32.132 -77.053,0 0,-32.132 z" /><text
       id="text3742"
       style="font-variant:normal;font-weight:bold;font-size:15.96000004px;font-family:Calibri;-inkscape-font-specification:'Calibri Bold';writing-mode:lr-tb;fill:#000000;fill-opacity:1;fill-rule:nonzero;stroke:none"
       transform="matrix(1,0,0,-1,159.74,350.5)"><tspan
         id="tspan3744"
         y="0"
         x="0 6.4797602 14.50764 20.173441 33.148918 37.075081 45.645599 53.529839">Terminal</tspan></text>
<path
       id="path3746"
       style="fill:#000000;fill-opacity:1;fill-rule:nonzero;stroke:none"
       d="m 227.46,356.85 55.83,-25.13 -0.82,-1.82 -55.83,25.12 0.82,1.83 z m 52.2,-19.8 5.03,-7.05 -8.61,-0.91 c -0.55,-0.06 -1.05,0.34 -1.1,0.89 -0.06,0.55 0.34,1.04 0.89,1.1 l 6.9,0.73 -0.71,-1.58 -4.03,5.66 c -0.32,0.45 -0.22,1.07 0.23,1.39 0.45,0.32 1.08,0.22 1.4,-0.23 z" /><path
       id="path3748"
       style="fill:#000000;fill-opacity:1;fill-rule:nonzero;stroke:none"
       d="m 375.44,181.72 -12.05,56.17 1.95,0.42 12.06,-56.17 -1.96,-0.42 z m -14.19,50.09 2.7,8.23 5.83,-6.39 c 0.38,-0.41 0.35,-1.04 -0.06,-1.42 -0.41,-0.37 -1.04,-0.34 -1.41,0.07 l -4.69,5.13 1.69,0.36 -2.16,-6.6 c -0.17,-0.52 -0.74,-0.81 -1.26,-0.64 -0.53,0.17 -0.81,0.74 -0.64,1.26 z" /><path
       id="path3750"
       style="fill:#000000;fill-opacity:1;fill-rule:nonzero;stroke:none"
       d="m 521.69,356.88 -76.91,-25.31 0.62,-1.9 76.91,25.31 -0.62,1.9 z m -72.74,-20.4 -5.74,-6.48 8.47,-1.81 c 0.54,-0.11 1.07,0.23 1.18,0.77 0.12,0.54 -0.23,1.07 -0.77,1.19 l -6.79,1.45 0.54,-1.64 4.6,5.2 c 0.37,0.41 0.33,1.04 -0.08,1.41 -0.41,0.36 -1.05,0.33 -1.41,-0.09 z" /><path
       id="path3752"
       style="fill:#000000;fill-opacity:1;fill-rule:nonzero;stroke:none"
       d="m 450.15,410.63 -41.48,-42.48 1.43,-1.39 41.48,42.48 -1.43,1.39 z m -40.05,-36.19 -2.1,-8.4 8.35,2.3 c 0.53,0.15 0.84,0.7 0.69,1.23 -0.14,0.53 -0.69,0.84 -1.23,0.7 l -6.69,-1.85 1.23,-1.21 1.69,6.74 c 0.14,0.54 -0.19,1.08 -0.73,1.21 -0.53,0.14 -1.07,-0.19 -1.21,-0.72 z" /><path
       id="path3754"
       style="fill:#000000;fill-opacity:1;fill-rule:nonzero;stroke:none"
       d="m 309.43,423.67 26.61,-55.41 -1.8,-0.87 -26.62,55.41 1.81,0.87 z m 27.27,-49 -0.7,-8.63 -7.17,4.85 c -0.46,0.31 -0.58,0.93 -0.27,1.39 0.31,0.46 0.93,0.58 1.39,0.27 l 5.75,-3.9 -1.55,-0.75 0.55,6.93 c 0.05,0.55 0.53,0.96 1.08,0.92 0.55,-0.05 0.96,-0.53 0.92,-1.08 z" /><path
       id="path3756"
       style="fill:#000000;fill-opacity:1;fill-rule:nonzero;stroke:none"
       d="m 185.33,258.03 97.73,28.46 -0.56,1.92 -97.73,-28.46 0.56,-1.92 z m 93.4,23.69 5.96,6.28 -8.4,2.1 c -0.54,0.13 -1.08,-0.19 -1.22,-0.73 -0.13,-0.53 0.2,-1.08 0.73,-1.21 l 6.74,-1.68 -0.48,1.65 -4.78,-5.03 c -0.38,-0.4 -0.37,-1.04 0.03,-1.42 0.4,-0.38 1.04,-0.36 1.42,0.04 z" /><path
       id="path3758"
       style="fill:#000000;fill-opacity:1;fill-rule:nonzero;stroke:none"
       d="m 245.12,197.28 42.15,40.67 -1.39,1.43 -42.15,-40.66 1.39,-1.44 z m 40.53,34.43 2.35,8.33 -8.41,-2.05 c -0.54,-0.13 -0.87,-0.67 -0.73,-1.21 0.13,-0.54 0.67,-0.86 1.2,-0.73 l 6.75,1.64 -1.2,1.25 -1.89,-6.69 c -0.15,-0.53 0.16,-1.08 0.69,-1.23 0.54,-0.15 1.09,0.16 1.24,0.69 z" /><path
       id="path3760"
       style="fill:none;stroke:#000000;stroke-width:2;stroke-linecap:butt;stroke-linejoin:round;stroke-miterlimit:10;stroke-dasharray:none;stroke-opacity:1"
       d="m 534,258.99 77.053,0 0,32.132 -77.053,0 0,-32.132 z" /><text
       id="text3762"
       style="font-variant:normal;font-weight:bold;font-size:15.96000004px;font-family:Calibri;-inkscape-font-specification:'Calibri Bold';writing-mode:lr-tb;fill:#000000;fill-opacity:1;fill-rule:nonzero;stroke:none"
       transform="matrix(1,0,0,-1,543.79,269.59)"><tspan
         id="tspan3764"
         y="0"
         x="0 6.4797602 14.50764 20.173441 33.148918 37.075081 45.645599 53.529839">Terminal</tspan></text>
<path
       id="path3766"
       style="fill:#000000;fill-opacity:1;fill-rule:nonzero;stroke:none"
       d="m 503.29,211.29 -59.4,60.09 1.42,1.41 59.4,-60.09 -1.42,-1.41 z m -57.93,53.82 -2.15,8.39 8.36,-2.26 c 0.53,-0.14 0.85,-0.69 0.71,-1.22 -0.15,-0.53 -0.7,-0.85 -1.23,-0.71 l -6.71,1.81 1.23,1.21 1.73,-6.72 c 0.14,-0.54 -0.19,-1.08 -0.72,-1.22 -0.53,-0.14 -1.08,0.18 -1.22,0.72 z" /><path
       id="path3768"
       style="fill:#000000;fill-opacity:1;fill-rule:nonzero;stroke:none"
       d="m 533.71,274.1 -88.9,27.4 0.59,1.91 88.89,-27.4 -0.58,-1.91 z m -84.64,22.57 -5.86,6.37 8.43,1.97 c 0.54,0.12 1.08,-0.21 1.2,-0.75 0.13,-0.54 -0.21,-1.07 -0.75,-1.2 l -6.76,-1.58 0.51,1.65 4.7,-5.11 c 0.38,-0.41 0.35,-1.04 -0.06,-1.41 -0.4,-0.38 -1.04,-0.35 -1.41,0.06 z" /></g></svg>